<svg
      className="delivery-car-icon"
      width="20"
      height="20"
      viewBox="0 0 20 20"
      fill="none"
      xmlns="http://www.w3.org/2000/svg"
    >
      <path
        fill-rule="evenodd"
        clip-rule="evenodd"
        d="M3.00011 5V4.5H2.50011V5H3.00011ZM3.00011 5L2.50011 5.00001V5.00003V5.00006V5.0001V5.00016V5.00023V5.00031V5.00041V5.00052V5.00064V5.00077V5.00092V5.00108V5.00125V5.00144V5.00163V5.00184V5.00207V5.0023V5.00255V5.00281V5.00308V5.00337V5.00366V5.00397V5.00429V5.00463V5.00498V5.00533V5.00571V5.00609V5.00648V5.00689V5.00731V5.00775V5.00819V5.00865V5.00912V5.0096V5.01009V5.0106V5.01111V5.01164V5.01218V5.01274V5.0133V5.01388V5.01447V5.01507V5.01569V5.01631V5.01695V5.0176V5.01826V5.01893V5.01961V5.02031V5.02102V5.02174V5.02247V5.02321V5.02397V5.02473V5.02551V5.0263V5.0271V5.02792V5.02874V5.02958V5.03042V5.03128V5.03215V5.03304V5.03393V5.03483V5.03575V5.03668V5.03762V5.03857V5.03953V5.0405V5.04149V5.04248V5.04349V5.04451V5.04554V5.04658V5.04763V5.04869V5.04977V5.05085V5.05195V5.05305V5.05417V5.0553V5.05644V5.05759V5.05876V5.05993V5.06111V5.06231V5.06351V5.06473V5.06596V5.0672V5.06845V5.06971V5.07098V5.07226V5.07355V5.07486V5.07617V5.07749V5.07883V5.08018V5.08153V5.0829V5.08428V5.08567V5.08706V5.08847V5.08989V5.09132V5.09277V5.09422V5.09568V5.09715V5.09863V5.10013V5.10163V5.10314V5.10467V5.1062V5.10775V5.1093V5.11086V5.11244V5.11403V5.11562V5.11723V5.11884V5.12047V5.1221V5.12375V5.12541V5.12707V5.12875V5.13044V5.13213V5.13384V5.13555V5.13728V5.13902V5.14076V5.14252V5.14428V5.14606V5.14784V5.14964V5.15144V5.15326V5.15508V5.15692V5.15876V5.16061V5.16248V5.16435V5.16623V5.16812V5.17002V5.17193V5.17385V5.17578V5.17772V5.17967V5.18163V5.1836V5.18558V5.18756V5.18956V5.19156V5.19358V5.1956V5.19764V5.19968V5.20173V5.20379V5.20586V5.20794V5.21003V5.21213V5.21423V5.21635V5.21847V5.22061V5.22275V5.2249V5.22707V5.22924V5.23142V5.2336V5.2358V5.23801V5.24022V5.24245V5.24468V5.24692V5.24917V5.25143V5.2537V5.25597V5.25826V5.26055V5.26286V5.26517V5.26749V5.26982V5.27216V5.2745V5.27686V5.27922V5.28159V5.28397V5.28636V5.28876V5.29117V5.29358V5.296V5.29843V5.30087V5.30332V5.30578V5.30824V5.31072V5.3132V5.31569V5.31818V5.32069V5.3232V5.32573V5.32826V5.3308V5.33334V5.3359V5.33846V5.34103V5.34361V5.3462V5.3488V5.3514V5.35401V5.35663V5.35926V5.36189V5.36454V5.36719V5.36985V5.37251V5.37519V5.37787V5.38056V5.38326V5.38596V5.38868V5.3914V5.39413V5.39686V5.39961V5.40236V5.40512V5.40789V5.41066V5.41344V5.41623V5.41903V5.42184V5.42465V5.42747V5.43029V5.43313V5.43597V5.43882V5.44168V5.44454V5.44741V5.45029V5.45318V5.45607V5.45897V5.46188V5.46479V5.46771V5.47064V5.47358V5.47652V5.47947V5.48243V5.4854V5.48837V5.49135V5.49433V5.49733V5.50033V5.50333V5.50635V5.50937V5.51239V5.51543V5.51847V5.52152V5.52457V5.52763V5.5307V5.53378V5.53686V5.53995V5.54304V5.54614V5.54925V5.55237V5.55549V5.55862V5.56175V5.56489V5.56804V5.5712V5.57436V5.57753V5.5807V5.58388V5.58707V5.59026V5.59346V5.59667V5.59988V5.6031V5.60632V5.60955V5.61279V5.61604V5.61929V5.62254V5.6258V5.62907V5.63235V5.63563V5.63892V5.64221V5.64551V5.64881V5.65212V5.65544V5.65876V5.66209V5.66543V5.66877V5.67212V5.67547V5.67883V5.68219V5.68556V5.68894V5.69232V5.69571V5.6991V5.7025V5.70591V5.70932V5.71273V5.71616V5.71958V5.72302V5.72646V5.7299V5.73335V5.73681V5.74027V5.74373V5.74721V5.75068V5.75417V5.75766V5.76115V5.76465V5.76815V5.77166V5.77518V5.7787V5.78222V5.78576V5.78929V5.79283V5.79638V5.79993V5.80349V5.80705V5.81062V5.81419V5.81777V5.82135V5.82494V5.82853V5.83213V5.83573V5.83934V5.84295V5.84657V5.85019V5.85382V5.85745V5.86109V5.86473V5.86838V5.87203V5.87569V5.87935V5.88301V5.88669V5.89036V5.89404V5.89773V5.90141V5.90511V5.90881V5.91251V5.91622V5.91993V5.92365V5.92737V5.93109V5.93482V5.93856V5.9423V5.94604V5.94979V5.95354V5.9573V5.96106V5.96482V5.96859V5.97237V5.97615V5.97993V5.98371V5.9875V5.9913V5.9951V5.9989V6.00271V6.00652V6.01034V6.01415V6.01798V6.02181V6.02564V6.02947V6.03331V6.03716V6.041V6.04485V6.04871V6.05257V6.05643V6.0603V6.06417V6.06804V6.07192V6.0758V6.07969V6.08358V6.08747V6.09136V6.09526V6.09917V6.10308V6.10699V6.1109V6.11482V6.11874V6.12267V6.12659V6.13053V6.13446V6.1384V6.14234V6.14629V6.15024V6.15419V6.15815V6.1621V6.16607V6.17003V6.174V6.17797V6.18195V6.18593V6.18991V6.19389V6.19788V6.20187V6.20587V6.20986V6.21386V6.21787V6.22187V6.22588V6.22989V6.23391V6.23793V6.24195V6.24597V6.24967V6.25L2.50011 6.25045L2.50011 6.25374L2.50009 6.26674L2.50002 6.31753L2.49977 6.51094L2.49887 7.20645L2.49615 9.36363C2.49417 10.9635 2.49219 12.65 2.49219 12.9941V13.4941H2.99219H3.80528C4.03761 14.5788 5.00048 15.5 6.18193 15.5C7.33388 15.5 8.305 14.7029 8.53792 13.625H11.4623C11.6952 14.7029 12.6663 15.5 13.8183 15.5C14.9702 15.5 15.9414 14.7029 16.1743 13.625H16.3637H17.0001H17.5001V13.125V10.4187C17.5001 10.0387 17.374 9.67079 17.1443 9.36713L17.1431 9.3655L15.6795 7.44675L15.6732 7.43853L15.6666 7.43058L15.459 7.18058L15.309 7H15.0743H13.6819V5V4.5H13.1819H13.1819H13.1819H13.1818H13.1817H13.1816H13.1815H13.1814H13.1812H13.1811H13.1809H13.1807H13.1804H13.1802H13.18H13.1797H13.1794H13.1791H13.1788H13.1784H13.1781H13.1777H13.1773H13.1769H13.1765H13.1761H13.1756H13.1751H13.1747H13.1742H13.1736H13.1731H13.1725H13.172H13.1714H13.1708H13.1702H13.1695H13.1689H13.1682H13.1675H13.1669H13.1661H13.1654H13.1647H13.1639H13.1631H13.1623H13.1615H13.1607H13.1599H13.159H13.1582H13.1573H13.1564H13.1555H13.1545H13.1536H13.1526H13.1517H13.1507H13.1497H13.1487H13.1476H13.1466H13.1455H13.1444H13.1434H13.1422H13.1411H13.14H13.1388H13.1377H13.1365H13.1353H13.1341H13.1329H13.1316H13.1304H13.1291H13.1279H13.1266H13.1253H13.1239H13.1226H13.1213H13.1199H13.1185H13.1172H13.1158H13.1143H13.1129H13.1115H13.11H13.1085H13.1071H13.1056H13.1041H13.1025H13.101H13.0995H13.0979H13.0963H13.0948H13.0932H13.0915H13.0899H13.0883H13.0866H13.085H13.0833H13.0816H13.0799H13.0782H13.0765H13.0747H13.073H13.0712H13.0695H13.0677H13.0659H13.0641H13.0622H13.0604H13.0586H13.0567H13.0548H13.053H12.732H11.9092H6.33634H5.66054H5.57917H5.55895H5.53877H5.49857H5.33981H5.18444H5.14616H5.1271H5.1081H5.03269H4.46577H4.20922H4.08839H3.97279H3.26061H3.25279H3.24509H3.2375H3.23002H3.22265H3.21539H3.20824H3.20121H3.19429H3.18749H3.1808H3.17422H3.16776H3.16142H3.15519H3.14908H3.14308H3.1372H3.13144H3.1258H3.12027H3.11486H3.10958H3.10441H3.09936H3.09443H3.08962H3.08493H3.08037H3.07592H3.0716H3.0674H3.06333H3.05937H3.05554H3.05184H3.04826H3.0448H3.04147H3.03827H3.03519H3.03224H3.02941H3.02671H3.02414H3.0217H3.01939H3.01721H3.01515H3.01322H3.01143H3.00976H3.00823H3.00683H3.00556H3.00442H3.00341H3.00254H3.0018H3.00119H3.00072H3.00038H3.00018L3.00011 5ZM3.50011 6.25072L3.00011 6.25L3.50011 6.25065V6.25V6.24597V6.24195V6.23793V6.23391V6.22989V6.22588V6.22187V6.21787V6.21386V6.20986V6.20587V6.20187V6.19788V6.19389V6.18991V6.18593V6.18195V6.17797V6.174V6.17003V6.16607V6.1621V6.15815V6.15419V6.15024V6.14629V6.14234V6.1384V6.13446V6.13053V6.12659V6.12267V6.11874V6.11482V6.1109V6.10699V6.10308V6.09917V6.09526V6.09136V6.08747V6.08358V6.07969V6.0758V6.07192V6.06804V6.06417V6.0603V6.05643V6.05257V6.04871V6.04485V6.041V6.03716V6.03331V6.02947V6.02564V6.02181V6.01798V6.01415V6.01034V6.00652V6.00271V5.9989V5.9951V5.9913V5.9875V5.98371V5.97993V5.97615V5.97237V5.96859V5.96482V5.96106V5.9573V5.95354V5.94979V5.94604V5.9423V5.93856V5.93482V5.93109V5.92737V5.92365V5.91993V5.91622V5.91251V5.90881V5.90511V5.90141V5.89773V5.89404V5.89036V5.88669V5.88301V5.87935V5.87569V5.87203V5.86838V5.86473V5.86109V5.85745V5.85382V5.85019V5.84657V5.84295V5.83934V5.83573V5.83213V5.82853V5.82494V5.82135V5.81777V5.81419V5.81062V5.80705V5.80349V5.79993V5.79638V5.79283V5.78929V5.78576V5.78222V5.7787V5.77518V5.77166V5.76815V5.76465V5.76115V5.75766V5.75417V5.75068V5.74721V5.74373V5.74027V5.73681V5.73335V5.7299V5.72646V5.72302V5.71958V5.71616V5.71273V5.70932V5.70591V5.7025V5.6991V5.69571V5.69232V5.68894V5.68556V5.68219V5.67883V5.67547V5.67212V5.66877V5.66543V5.66209V5.65876V5.65544V5.65212V5.64881V5.64551V5.64221V5.63892V5.63563V5.63235V5.62907V5.6258V5.62254V5.61929V5.61604V5.61279V5.60955V5.60632V5.6031V5.59988V5.59667V5.59346V5.59026V5.58707V5.58388V5.5807V5.57753V5.57436V5.5712V5.56804V5.56489V5.56175V5.55862V5.55549V5.55237V5.54925V5.54614V5.54304V5.53995V5.53686V5.53378V5.5307V5.52763V5.52457V5.52152V5.51847V5.51543V5.51239V5.50937V5.50635V5.50333V5.50033V5.5H3.97279H6.33634H11.9092H12.6819V7.5V8H13.1819H14.8396L14.8907 8.06147L16.3468 9.97037L16.3473 9.97111C16.4482 10.1048 16.5001 10.2616 16.5001 10.4187V12.625H16.3637H15.7274H15.2274V13.125C15.2274 13.8779 14.607 14.5 13.8183 14.5C13.0295 14.5 12.4092 13.8779 12.4092 13.125V12.625H11.9092H8.09102H7.59102V13.125C7.59102 13.8779 6.97068 14.5 6.18193 14.5C5.42907 14.5 4.75177 13.7837 4.75177 12.9941V12.4941H4.25177H3.49254C3.4932 11.7977 3.49467 10.5576 3.49615 9.36487L3.49887 7.20773L3.49977 6.51224L3.50002 6.31884L3.50009 6.26805L3.50011 6.25505L3.50011 6.25176L3.50011 6.25093L3.50011 6.25072ZM5.54552 13.125C5.54552 13.4688 5.83189 13.75 6.18189 13.75C6.53189 13.75 6.81825 13.4688 6.81825 13.125C6.81825 12.7812 6.53189 12.5 6.18189 12.5C5.83189 12.5 5.54552 12.7812 5.54552 13.125ZM14.4741 8.71501L15.4998 10H12.7191L12.7189 8.71501H14.4741ZM13.1818 13.125C13.1818 13.4688 13.4681 13.75 13.8181 13.75C14.1681 13.75 14.4545 13.4688 14.4545 13.125C14.4545 12.7812 14.1681 12.5 13.8181 12.5C13.4681 12.5 13.1818 12.7812 13.1818 13.125Z"
        fill="#616365"
      />
    </svg>