<svg width="25" height="14" viewBox="0 0 25 14" fill="none" xmlns="http://www.w3.org/2000/svg">
<path d="M0 14V0H25L18.0444 7L25 14H0Z" fill="#0F0F0F"/>
<path d="M10.5467 10.3533C10.7481 10.2363 11.0679 10.0959 11.3995 10.0375C11.6719 9.99066 12.1575 9.76839 12.3707 9.59292C12.7142 9.32386 12.7971 9.24197 12.9748 9.0548C13.1169 8.90272 13.3064 8.66876 13.4485 8.42309C13.7446 7.89667 13.6736 7.66271 13.6499 7.67441C13.0932 7.87328 13.0221 7.89667 12.6431 8.01366C12.4418 8.07215 12.276 8.13064 12.0391 8.18913C12.0154 8.18913 11.9917 8.10724 11.9325 8.01366C11.8496 7.90837 11.7903 7.87328 11.7903 7.87328C11.7903 7.87328 12.1338 7.49893 12.2404 7.32346C12.4062 7.0895 12.7734 6.55138 12.7734 6.55138C12.7734 6.55138 13.3301 6.21213 13.7091 5.7325C14.0644 5.29967 14.1355 5.13589 14.2539 4.63287C14.3368 4.24682 14.2539 3.80229 14.0526 3.49814C13.8867 3.24078 13.7801 3.13549 13.4485 2.92492C13.2353 2.79624 13.0103 2.71436 13.0103 2.71436C12.9037 2.88983 12.6431 3.33436 12.4773 3.53323C12.2523 3.80229 12.0746 3.94267 11.8851 4.10645C11.7548 4.22343 11.4469 4.45739 11.21 4.62117C11.0442 4.73815 10.7125 4.93702 10.6652 4.97211C10.4757 5.0891 10.2269 5.20608 10.2269 5.20608C10.2269 5.20608 10.144 5.55703 10.0848 5.7442C9.96637 6.11854 9.78871 6.43439 9.78871 6.43439C9.78871 6.43439 9.7058 5.91967 9.52814 5.60382C9.33863 5.26457 9.08991 5.0774 9.07806 5.00721C8.94778 4.28192 8.75827 4.16494 8.59246 3.97776C8.40295 3.7672 8.15423 3.56833 7.84628 3.43965C7.51465 3.29927 7.06458 3.17059 6.51975 3.28757C6.14074 3.36946 5.71436 3.53323 5.71436 3.53323C5.71436 3.53323 5.92755 3.7789 6.08152 3.98946C6.34209 4.36381 6.54344 4.66796 6.63819 4.92532C6.74479 5.19438 6.87507 5.55703 6.93429 5.77929C6.99351 6.01326 7.04089 6.35251 7.04089 6.35251C7.04089 6.35251 7.38437 6.50458 7.53834 6.64496C7.65678 6.75025 7.79891 6.87893 7.89366 7.11289C7.89366 7.12459 7.58571 7.24157 7.37252 7.39365C7.08826 7.59252 6.96982 7.7212 6.92245 7.93177C6.92245 7.93177 6.57897 8.21253 6.60266 8.51668C6.6145 8.64536 6.70925 8.77404 6.75663 8.82083C6.8277 8.90272 6.99351 9.00801 7.18302 8.96121C7.38437 8.91442 7.63309 8.64536 8.02394 8.78574C8.2016 8.84423 8.29636 9.0782 8.37927 9.23027C8.46217 9.38235 8.54508 9.47593 8.58061 9.60462C8.62799 9.75669 8.54508 9.88537 8.46217 9.97896C8.36742 10.0725 8.08316 10.2129 8.00026 10.4703C7.92919 10.6692 7.98841 10.9148 8.2016 11.0318C8.40295 11.1371 8.68721 11.0669 8.68721 11.0669C8.68721 11.0669 8.93593 11.336 9.27941 11.2775C9.58736 11.219 9.93083 10.9148 10.0019 10.8329C10.1796 10.6107 10.3928 10.4469 10.5467 10.3533Z" fill="black"/>
<path d="M12.8681 5.00768C14.3131 4.30579 13.9696 3.87295 13.9696 3.87295C13.1524 4.69183 12.6905 4.76202 12.6905 4.76202C14.0762 3.83786 13.6025 3.42842 13.6025 3.42842C13.259 4.04843 12.4536 4.55145 12.4536 4.55145C13.6143 3.39333 13.1524 3.12427 13.1524 3.12427C12.5602 4.29409 10.523 5.40542 10.523 5.40542C10.2387 7.00808 9.05434 7.72167 9.05434 7.72167L9.24385 7.44092C9.20832 7.44092 8.80562 7.42922 8.80562 7.42922L8.84115 7.32393C8.66349 7.32393 8.08313 7.42922 8.08313 7.42922L8.09498 7.31224C7.72781 7.45261 7.39618 7.70998 7.24221 7.86205C7.08823 8.01413 7.19483 8.04923 7.19483 8.04923C7.07639 8.13111 6.92242 8.29489 6.92242 8.29489C6.79213 8.49376 6.92242 8.59904 7.00533 8.66923C7.10008 8.75112 7.06455 8.65753 7.06455 8.65753C6.95795 8.51715 7.11192 8.43527 7.11192 8.43527C7.27774 8.38847 7.3488 8.31828 7.3488 8.31828V8.40017C7.32511 8.42357 7.31327 8.43527 7.30143 8.45866C7.26589 8.49376 7.23036 8.54055 7.19483 8.58734C7.18299 8.59904 7.17114 8.62244 7.1593 8.63414L7.17114 8.64584C7.18299 8.64584 7.20667 8.63414 7.21852 8.63414C7.25405 8.62244 7.28958 8.61074 7.32511 8.58734C7.38433 8.55225 7.4554 8.52885 7.51462 8.48206C7.70412 8.43527 7.97654 8.44697 7.97654 8.44697C8.30817 8.44697 8.53321 8.84471 8.53321 8.84471C8.84115 9.57 9.42151 9.64019 9.42151 9.64019C9.40967 9.59339 9.31491 9.44132 9.31491 9.44132C10.0611 10.0964 9.05434 10.4825 9.05434 10.4825C8.91222 10.7047 8.90037 10.8568 8.90037 10.8568C8.94775 11.044 9.26754 10.9855 9.26754 10.9855C9.00697 10.8919 9.19647 10.6579 9.19647 10.6579C9.16094 11.044 9.57548 10.7983 9.57548 10.7983C9.23201 10.8451 9.4452 10.5409 9.4452 10.5409C9.40967 10.8685 9.80052 10.576 9.80052 10.576C9.43335 10.6111 9.69392 10.3772 9.69392 10.3772C9.80052 10.2719 10.2861 10.1315 10.2861 10.1315C10.1677 10.1081 10.0611 10.0262 10.0611 10.0262C10.298 9.99113 10.6651 9.88585 10.6651 9.88585C10.4283 9.80396 10.3335 9.69868 10.3335 9.69868C10.5467 9.69868 10.7954 9.58169 10.7954 9.58169C11.3639 9.83906 11.6008 9.61679 11.6008 9.61679C11.4705 9.61679 11.0323 9.41792 11.0323 9.41792C11.7785 9.73377 12.0864 9.40622 12.0864 9.40622C11.814 9.40622 11.281 9.28924 11.281 9.28924C12.1456 9.44132 12.4891 9.09037 12.4891 9.09037C12.0035 9.09037 11.4232 9.10207 11.4232 9.10207C12.7142 9.05527 12.9037 8.64584 12.9037 8.64584C12.4536 8.76282 11.4824 8.9032 11.4824 8.9032C13.1524 8.61074 13.2708 8.06092 13.2708 8.06092C12.2759 8.54055 10.9968 8.75112 10.9968 8.75112L10.5941 8.68093C9.57548 8.98508 9.43335 8.56395 9.43335 8.56395C10.6533 9.40622 12.3707 6.50506 12.3707 6.50506C11.8732 6.66883 11.7666 6.62204 11.7666 6.62204C13.0103 6.2009 13.0458 5.96694 13.0458 5.96694C12.4417 6.13071 12.3115 6.08392 12.3115 6.08392C13.2827 5.92015 13.4603 5.52241 13.4603 5.52241C12.7852 5.75637 12.501 5.70958 12.501 5.70958C13.863 5.40542 13.7564 5.05448 13.7564 5.05448C13.1287 5.33523 12.7497 5.34693 12.7497 5.34693C14.1473 4.9141 13.9459 4.50466 13.9459 4.50466C13.4011 4.9258 12.8681 5.00768 12.8681 5.00768ZM7.43171 8.1896C7.41987 8.1896 7.39618 8.2013 7.38433 8.2013C7.36065 8.2013 7.32511 8.213 7.30143 8.213C7.26589 8.2247 7.23036 8.2247 7.19483 8.2364C7.17114 8.2364 7.1593 8.2481 7.13561 8.2481C7.13561 8.2481 7.12377 8.25979 7.12377 8.2481V8.2364C7.13561 8.2247 7.14745 8.213 7.1593 8.2013C7.17114 8.1896 7.19483 8.16621 7.20667 8.15451C7.21852 8.14281 7.24221 8.13111 7.25405 8.11941C7.25405 8.11941 7.27774 8.10772 7.27774 8.09602C7.27774 8.09602 7.27774 8.14281 7.40802 8.16621C7.40802 8.17791 7.41987 8.17791 7.43171 8.1896C7.43171 8.17791 7.43171 8.17791 7.43171 8.1896C7.44355 8.17791 7.44355 8.17791 7.43171 8.1896ZM7.43171 8.04923C7.37249 8.04923 7.32511 7.99073 7.32511 7.99073L7.52646 7.87375L7.43171 8.04923ZM8.26079 8.06092L8.18973 8.11941L7.88178 8.03753L8.26079 8.06092ZM8.53321 7.85035L8.42661 7.94394L7.88178 7.86205L8.53321 7.85035ZM8.75824 7.5813L8.62796 7.68658L7.92916 7.66318L8.75824 7.5813ZM9.65839 8.25979C9.19647 8.31828 9.0425 8.2013 9.0425 8.2013C9.95449 8.213 10.6651 7.99073 10.677 7.99073L9.65839 8.25979ZM10.677 7.99073C10.2387 8.15451 9.90712 8.2364 9.65839 8.25979L10.677 7.99073ZM11.1863 7.37073C9.80052 8.16621 9.26754 7.96734 9.26754 7.96734C10.3809 7.76847 11.1744 7.37073 11.1863 7.37073C11.1863 7.35903 11.1863 7.35903 11.1863 7.37073Z" fill="#FFD100"/>
<path d="M8.72316 10.377C8.68763 10.6695 9.04295 10.4121 9.04295 10.4121C9.01926 10.4238 8.91267 10.4238 8.88898 10.4004C8.85345 10.377 8.86529 10.3653 8.86529 10.3302C8.86529 10.2483 8.91267 10.1898 8.98373 10.1547C9.11401 10.0728 9.32721 9.99096 9.49302 10.0027C9.5404 9.86228 9.49302 9.81549 9.45749 9.7336C9.22061 9.7219 9.07848 9.62831 8.87713 9.42944C8.9482 9.53473 8.93635 9.66341 8.90082 9.76869C8.86529 9.86228 8.80607 9.99096 8.73501 10.0611C8.66394 10.143 8.58103 10.2015 8.48628 10.2483C8.46259 10.26 8.36784 10.2834 8.356 10.3068C8.23756 10.5057 8.21387 10.6461 8.21387 10.6461C8.26124 10.8098 8.5455 10.763 8.5455 10.763C8.30862 10.6695 8.48628 10.4706 8.48628 10.4706C8.46259 10.8215 8.82976 10.5993 8.82976 10.5993C8.52181 10.6461 8.72316 10.377 8.72316 10.377Z" fill="#FFD100"/>
<path d="M8.34348 7.32355C8.34348 7.32355 8.92384 7.21827 9.17256 7.21827C9.17256 7.21827 9.04228 7.07789 8.56852 6.9843C8.56852 6.9843 8.74618 6.90242 9.01859 6.90242C9.01859 6.90242 8.90015 6.79713 8.46192 6.69185C8.46192 6.69185 8.63958 6.62166 8.84093 6.62166C8.84093 6.62166 8.63958 6.50468 8.31979 6.44618C8.31979 6.44618 8.48561 6.38769 8.68696 6.38769C8.68696 6.38769 8.45008 6.27071 8.17766 6.23562C8.17766 6.23562 8.35532 6.17713 8.52114 6.16543C8.52114 6.16543 8.22504 6.02505 8.01185 6.03675C8.01185 6.03675 8.23688 5.97826 8.2961 5.96656C8.2961 5.96656 7.98816 5.84957 7.83419 5.84957C7.83419 5.84957 8.02369 5.80278 8.07107 5.80278C8.07107 5.80278 7.86972 5.73259 7.72759 5.7092C7.72759 5.7092 8.48561 5.38165 9.27916 7.35865C9.27916 7.35865 9.94243 6.27071 8.85277 5.21787L8.73433 5.38165C8.73433 5.38165 8.86462 4.66805 8.36717 4.17673C8.36717 4.17673 8.5093 4.78504 8.43823 4.91372C8.43823 4.91372 8.35532 4.02465 7.97631 3.79069C7.97631 3.79069 8.13029 4.28201 8.08291 4.46918C8.08291 4.46918 7.94078 3.7205 7.58546 3.59182C7.58546 3.59182 7.79865 4.07144 7.73943 4.28201C7.73943 4.28201 7.54993 3.52163 7.17092 3.49823C7.17092 3.49823 7.43149 4.04805 7.39596 4.17673C7.39596 4.17673 7.12354 3.49823 6.68531 3.46313C6.68531 3.46313 7.06432 4.09484 7.04063 4.18843C7.04063 4.18843 6.55503 3.41634 6.19971 3.60351C6.19971 3.60351 6.98141 4.29371 7.33674 6.07184C7.34858 6.09524 8.08291 6.39939 8.34348 7.32355Z" fill="#FFD100"/>
<path d="M11.3755 8.22426C11.3755 8.34124 11.4702 8.42313 11.5887 8.42313C11.6953 8.42313 11.79 8.32955 11.79 8.22426C11.79 8.10728 11.6953 8.02539 11.5887 8.02539C11.4702 8.02539 11.3755 8.10728 11.3755 8.22426ZM11.7545 8.22426C11.7545 8.32955 11.6834 8.39973 11.5887 8.39973C11.4939 8.39973 11.4229 8.32955 11.4229 8.22426C11.4229 8.13068 11.4939 8.04879 11.5887 8.04879C11.6834 8.04879 11.7545 8.13068 11.7545 8.22426Z" fill="#FFD100"/>
<path d="M11.505 8.34137H11.5405V8.23608H11.5761L11.6471 8.34137H11.6827L11.6116 8.23608C11.6471 8.23608 11.6708 8.21269 11.6708 8.16589C11.6708 8.1191 11.6471 8.0957 11.5879 8.0957H11.4932V8.34137H11.505ZM11.5405 8.1308H11.5879C11.6116 8.1308 11.6353 8.1308 11.6353 8.16589C11.6353 8.20099 11.5998 8.20099 11.5761 8.20099H11.5405V8.1308Z" fill="#FFD100"/>
</svg>
