<svg className="me-3" width="16" height="14" viewBox="0 0 16 14" fill="none" xmlns="http://www.w3.org/2000/svg">
  <path d="M7.13441 2.90286L7.75639 3.59037L8.37393 2.89887L8.83709 2.38025C9.99841 1.07985 10.9972 0.717875 11.8926 0.864316C13.0847 1.05927 13.9229 1.7932 14.3243 2.85519C14.7337 3.93848 14.703 5.4216 13.9745 7.04804C13.4167 8.29306 12.1497 9.79033 10.7897 10.9959C10.1183 11.5911 9.45182 12.0905 8.87825 12.4355C8.59132 12.6081 8.34054 12.7342 8.1338 12.8151C7.91723 12.8999 7.79596 12.9163 7.75346 12.9163C7.7537 12.9163 7.75382 12.9163 7.75382 12.9163C7.75382 12.9162 7.72761 12.9153 7.66904 12.9001C7.60859 12.8844 7.52864 12.8574 7.42834 12.8151C7.22642 12.7297 6.97623 12.5964 6.68625 12.4145C6.10727 12.0513 5.42505 11.5296 4.73721 10.9187C3.33852 9.67646 2.04539 8.18044 1.53139 7.04564C0.739178 5.29662 0.676869 3.80778 1.06749 2.76439C1.44306 1.76121 2.27737 1.05188 3.60084 0.86636C4.51238 0.738584 5.51754 1.11565 6.66792 2.38723L7.13441 2.90286Z" stroke="black" stroke-width="1.66667" />
</svg>