<svg
        class="social-network-icon"
        width="16"
        height="16"
        viewBox="0 0 16 16"
        fill="none"
        xmlns="http://www.w3.org/2000/svg"
      >
        <path
          d="M14.4545 5.32705C14.4241 4.63755 14.3126 4.16352 14.1529 3.75276C13.9881 3.31676 13.7346 2.9264 13.4024 2.6019C13.0779 2.27235 12.685 2.01627 12.2541 1.85407C11.8409 1.69434 11.3694 1.58284 10.6799 1.55244C9.98521 1.51947 9.76469 1.51184 8.00284 1.51184C6.241 1.51184 6.02048 1.51947 5.32839 1.54987C4.63889 1.58027 4.16486 1.69187 3.7542 1.85149C3.3181 2.01627 2.92775 2.26977 2.60324 2.6019C2.27369 2.9264 2.01771 3.31933 1.85541 3.75029C1.69569 4.16352 1.58418 4.63497 1.55378 5.32448C1.52081 6.01913 1.51318 6.23966 1.51318 8.0015C1.51318 9.76335 1.52081 9.98387 1.55121 10.676C1.58161 11.3655 1.69321 11.8395 1.85294 12.2502C2.01771 12.6863 2.27369 13.0766 2.60324 13.4011C2.92775 13.7307 3.32068 13.9867 3.75163 14.1489C4.16486 14.3087 4.63631 14.4202 5.32592 14.4506C6.0179 14.4811 6.23853 14.4886 8.00037 14.4886C9.76221 14.4886 9.98274 14.4811 10.6748 14.4506C11.3643 14.4202 11.8384 14.3087 12.249 14.1489C13.1211 13.8118 13.8106 13.1223 14.1478 12.2502C14.3074 11.837 14.419 11.3655 14.4494 10.676C14.4798 9.98387 14.4875 9.76335 14.4875 8.0015C14.4875 6.23966 14.4849 6.01913 14.4545 5.32705ZM13.2859 10.6253C13.258 11.259 13.1515 11.6012 13.0628 11.8294C12.8447 12.3947 12.3961 12.8434 11.8307 13.0615C11.6026 13.1502 11.2579 13.2566 10.6266 13.2845C9.94214 13.315 9.73686 13.3225 8.00542 13.3225C6.27398 13.3225 6.06613 13.315 5.38415 13.2845C4.75039 13.2566 4.40816 13.1502 4.18001 13.0615C3.89868 12.9575 3.6426 12.7927 3.43475 12.5772C3.21927 12.3668 3.0545 12.1133 2.95052 11.832C2.8618 11.6038 2.75535 11.259 2.72752 10.6278C2.69702 9.94337 2.68949 9.738 2.68949 8.00656C2.68949 6.27511 2.69702 6.06726 2.72752 5.38538C2.75535 4.75162 2.8618 4.40939 2.95052 4.18124C3.0545 3.89981 3.21927 3.64384 3.43733 3.43589C3.64765 3.22041 3.90116 3.05563 4.18258 2.95175C4.41074 2.86303 4.75554 2.75658 5.38672 2.72865C6.07118 2.69825 6.27655 2.69063 8.00789 2.69063C9.74191 2.69063 9.94719 2.69825 10.6292 2.72865C11.2629 2.75658 11.6052 2.86303 11.8333 2.95175C12.1146 3.05563 12.3707 3.22041 12.5786 3.43589C12.794 3.64631 12.9588 3.89981 13.0628 4.18124C13.1515 4.40939 13.258 4.7541 13.2859 5.38538C13.3163 6.06984 13.3239 6.27511 13.3239 8.00656C13.3239 9.738 13.3163 9.9408 13.2859 10.6253Z"
          fill="white"
        />
        <path
          d="M8.04645 4.71179C6.20608 4.71179 4.71289 6.20488 4.71289 8.04535C4.71289 9.88582 6.20608 11.3789 8.04645 11.3789C9.88692 11.3789 11.38 9.88582 11.38 8.04535C11.38 6.20488 9.88692 4.71179 8.04645 4.71179ZM8.04645 10.2077C6.85251 10.2077 5.88405 9.23938 5.88405 8.04535C5.88405 6.85131 6.85251 5.88295 8.04645 5.88295C9.24048 5.88295 10.2088 6.85131 10.2088 8.04535C10.2088 9.23938 9.24048 10.2077 8.04645 10.2077Z"
          fill="white"
        />
        <path
          d="M11.8696 3.89005C11.8696 4.31982 11.5211 4.66828 11.0912 4.66828C10.6615 4.66828 10.313 4.31982 10.313 3.89005C10.313 3.46018 10.6615 3.11182 11.0912 3.11182C11.5211 3.11182 11.8696 3.46018 11.8696 3.89005Z"
          fill="white"
        />
      </svg>