<svg width="24" height="24" viewBox="0 0 24 24" fill="none" xmlns="http://www.w3.org/2000/svg">
  <path d="M5.42188 10.9048V20.248H18.8975V10.9048" stroke="white" stroke-width="1.5" />
  <path d="M2.69531 20.248L21.3577 20.248" stroke="white" stroke-width="1.5" />
  <rect x="8.30313" y="15.2367" width="2.94634" height="5.0195" stroke="white" stroke-width="1.2" />
  <path
    d="M18.9451 3.85596H5.3433L2.79297 7.49881H21.2829L18.9451 3.85596Z"
    stroke="white"
    stroke-width="1.5"
    stroke-linejoin="round"
  />
  <path
    fill-rule="evenodd"
    clip-rule="evenodd"
    d="M3.35123 5.44278C2.52553 6.11101 2 7.11737 2 8.24298C2 10.2549 3.67894 11.8858 5.75001 11.8858C7.05442 11.8858 8.20328 11.2389 8.87509 10.2572C9.54693 11.2387 10.6957 11.8856 12 11.8856C13.3042 11.8856 14.4529 11.2388 15.1248 10.2575C15.7966 11.2388 16.9453 11.8856 18.2495 11.8856C20.3206 11.8856 21.9995 10.2546 21.9995 8.24273C21.9995 6.8407 21.1842 5.62366 19.989 5.01465V6.88472C20.3107 7.26009 20.4995 7.73746 20.4995 8.24273C20.4995 9.38551 19.5335 10.3856 18.2495 10.3856C16.9657 10.3856 15.9996 9.38562 15.9995 8.24292H14.25C14.2499 9.38562 13.2839 10.3856 12 10.3856C10.7161 10.3856 9.75011 9.38562 9.75 8.24292H8.00002C8.00002 8.24294 8.00002 8.24296 8.00002 8.24298C8.00002 9.38575 7.03394 10.3858 5.75001 10.3858C4.46608 10.3858 3.5 9.38575 3.5 8.24298C3.5 8.24296 3.5 8.24294 3.5 8.24292H3.35123V5.44278Z"
    fill="white"
  />
</svg>