<svg width="18" height="16" viewBox="0 0 18 16" fill="none" xmlns="http://www.w3.org/2000/svg">
  <path d="M4.47828 6.33333H13.4942L10.1415 1.48614L11.5017 0.5L15.5364 6.33333H16.4998C16.9601 6.33333 17.3332 6.70643 17.3332 7.16667C17.3332 7.6269 16.9601 8 16.4998 8L13.6064 14.5102C13.3389 15.1121 12.742 15.5 12.0834 15.5H5.91629C5.25764 15.5 4.66078 15.1121 4.39327 14.5102L1.49984 8C1.0396 8 0.666504 7.6269 0.666504 7.16667C0.666504 6.70643 1.0396 6.33333 1.49984 6.33333H2.43011L6.49984 0.5L7.85606 1.4918L4.47828 6.33333ZM3.32484 8L5.9165 13.8333H12.0801L14.6748 8H3.32484Z" fill="black" />
</svg>