<svg className="position-absolute transform-horizontal-center" width="32" height="32" viewBox="0 0 32 32" fill="none" xmlns="http://www.w3.org/2000/svg">
  <path d="M17.7492 26.7298C18.3935 26.3554 19.4169 25.9062 20.4781 25.7191C21.3498 25.5693 22.9038 24.8581 23.586 24.2966C24.6851 23.4356 24.9504 23.1735 25.5189 22.5746C25.9737 22.0879 26.5801 21.3392 27.035 20.5531C27.9825 18.8686 27.7551 18.1199 27.6793 18.1573C25.8979 18.7937 25.6705 18.8686 24.4577 19.2429C23.8134 19.4301 23.2828 19.6173 22.5247 19.8044C22.4489 19.8044 22.3731 19.5424 22.1836 19.2429C21.9183 18.906 21.7288 18.7937 21.7288 18.7937C21.7288 18.7937 22.828 17.5958 23.1691 17.0343C23.6997 16.2856 24.8746 14.5636 24.8746 14.5636C24.8746 14.5636 26.6559 13.478 27.8688 11.9432C29.0058 10.5581 29.2332 10.0341 29.6122 8.42439C29.8775 7.18906 29.6122 5.76655 28.9679 4.79326C28.4373 3.9697 28.0962 3.63279 27.035 2.95898C26.3527 2.5472 25.6326 2.28516 25.6326 2.28516C25.2915 2.84667 24.4577 4.26918 23.9271 4.90556C23.207 5.76655 22.6384 6.21576 22.032 6.73984C21.6151 7.11419 20.6297 7.86287 19.8717 8.38696C19.3411 8.7613 18.2798 9.39768 18.1282 9.50999C17.5218 9.88433 16.7259 10.2587 16.7259 10.2587C16.7259 10.2587 16.4606 11.3817 16.2711 11.9807C15.8921 13.1786 15.3236 14.1893 15.3236 14.1893C15.3236 14.1893 15.0583 12.5422 14.4897 11.5314C13.8833 10.4458 13.0874 9.8469 13.0495 9.62229C12.6326 7.30136 12.0262 6.92702 11.4956 6.32807C10.8892 5.65425 10.0932 5.01786 9.10781 4.60609C8.04659 4.15687 6.60635 3.7451 4.86291 4.11944C3.65008 4.38148 2.28564 4.90556 2.28564 4.90556C2.28564 4.90556 2.96786 5.69168 3.46057 6.3655C4.29439 7.5634 4.93871 8.53669 5.24192 9.36025C5.58303 10.2212 5.99994 11.3817 6.18944 12.093C6.37895 12.8416 6.53055 13.9272 6.53055 13.9272C6.53055 13.9272 7.62968 14.4139 8.12239 14.8631C8.5014 15.2 8.95621 15.6118 9.25942 16.3605C9.25942 16.3979 8.27399 16.7723 7.59178 17.2589C6.68215 17.8953 6.30314 18.3071 6.15154 18.9809C6.15154 18.9809 5.05241 19.8793 5.12821 20.8526C5.16612 21.2644 5.46932 21.6762 5.62093 21.8259C5.84833 22.0879 6.37895 22.4248 6.98536 22.2751C7.62968 22.1254 8.4256 21.2644 9.67633 21.7136C10.2448 21.9008 10.548 22.6494 10.8134 23.1361C11.0787 23.6227 11.344 23.9222 11.4577 24.334C11.6093 24.8206 11.344 25.2324 11.0787 25.5319C10.7755 25.8314 9.86583 26.2806 9.60053 27.1041C9.37312 27.7405 9.56262 28.5266 10.2448 28.901C10.8892 29.2379 11.7988 29.0133 11.7988 29.0133C11.7988 29.0133 12.5947 29.8743 13.6938 29.6871C14.6793 29.4999 15.7784 28.5266 16.0058 28.2646C16.5743 27.5533 17.2565 27.0293 17.7492 26.7298Z" fill="black" />
  <path d="M25.1771 9.62361C29.801 7.37755 28.7019 5.99248 28.7019 5.99248C26.0867 8.61288 24.6086 8.83749 24.6086 8.83749C29.043 5.88018 27.527 4.56997 27.527 4.56997C26.4279 6.55399 23.8506 8.16367 23.8506 8.16367C27.5649 4.45767 26.0868 3.59668 26.0868 3.59668C24.1917 7.34011 17.6727 10.8964 17.6727 10.8964C16.7631 16.0249 12.973 18.3084 12.973 18.3084L13.5794 17.41C13.4657 17.41 12.1771 17.3725 12.1771 17.3725L12.2908 17.0356C11.7223 17.0356 9.86515 17.3725 9.86515 17.3725L9.90305 16.9982C8.72812 17.4474 7.66689 18.2709 7.17418 18.7576C6.68147 19.2442 7.02258 19.3565 7.02258 19.3565C6.64357 19.6186 6.15085 20.1427 6.15085 20.1427C5.73394 20.779 6.15085 21.116 6.41616 21.3406C6.71937 21.6026 6.60567 21.3031 6.60567 21.3031C6.26456 20.8539 6.75727 20.5919 6.75727 20.5919C7.28788 20.4421 7.51529 20.2175 7.51529 20.2175V20.4796C7.43949 20.5544 7.40159 20.5919 7.36368 20.6667C7.24998 20.779 7.13628 20.9288 7.02258 21.0785C6.98467 21.116 6.94677 21.1908 6.90887 21.2283L6.94677 21.2657C6.98467 21.2657 7.06048 21.2283 7.09838 21.2283C7.21208 21.1908 7.32578 21.1534 7.43949 21.0785C7.62899 20.9662 7.8564 20.8913 8.0459 20.7416C8.65232 20.5919 9.52404 20.6293 9.52404 20.6293C10.5853 20.6293 11.3054 21.9021 11.3054 21.9021C12.2908 24.223 14.148 24.4476 14.148 24.4476C14.1101 24.2979 13.8068 23.8112 13.8068 23.8112C16.1946 25.9076 12.973 27.1429 12.973 27.1429C12.5182 27.8541 12.4803 28.3408 12.4803 28.3408C12.6319 28.9397 13.6552 28.7526 13.6552 28.7526C12.8214 28.4531 13.4278 27.7044 13.4278 27.7044C13.3141 28.9397 14.6407 28.1536 14.6407 28.1536C13.5415 28.3034 14.2238 27.3301 14.2238 27.3301C14.1101 28.3782 15.3608 27.4424 15.3608 27.4424C14.1859 27.5547 15.0197 26.806 15.0197 26.806C15.3608 26.4691 16.9147 26.0199 16.9147 26.0199C16.5357 25.945 16.1946 25.6829 16.1946 25.6829C16.9526 25.5706 18.1276 25.2337 18.1276 25.2337C17.3695 24.9717 17.0663 24.6348 17.0663 24.6348C17.7485 24.6348 18.5445 24.2604 18.5445 24.2604C20.3637 25.084 21.1217 24.3727 21.1217 24.3727C20.7048 24.3727 19.3025 23.7364 19.3025 23.7364C21.6902 24.7471 22.6757 23.6989 22.6757 23.6989C21.8039 23.6989 20.0984 23.3246 20.0984 23.3246C22.8652 23.8112 23.9643 22.6882 23.9643 22.6882C22.4104 22.6882 20.5532 22.7256 20.5532 22.7256C24.6844 22.5759 25.2908 21.2657 25.2908 21.2657C23.8506 21.64 20.7427 22.0892 20.7427 22.0892C26.0867 21.1534 26.4658 19.394 26.4658 19.394C23.2821 20.9288 19.1888 21.6026 19.1888 21.6026L17.9001 21.378C14.6407 22.3513 14.1859 21.0037 14.1859 21.0037C18.0897 23.6989 23.5853 14.4152 23.5853 14.4152C21.9934 14.9393 21.6523 14.7896 21.6523 14.7896C25.6319 13.4419 25.7456 12.6932 25.7456 12.6932C23.8127 13.2173 23.3958 13.0676 23.3958 13.0676C26.5037 12.5435 27.0722 11.2707 27.0722 11.2707C24.9118 12.0194 24.0022 11.8697 24.0022 11.8697C28.3608 10.8964 28.0197 9.77335 28.0197 9.77335C26.0109 10.6718 24.7981 10.7092 24.7981 10.7092C29.2704 9.32414 28.6261 8.01393 28.6261 8.01393C26.8827 9.36157 25.1771 9.62361 25.1771 9.62361ZM7.78059 19.8058C7.74269 19.8058 7.66689 19.8432 7.62899 19.8432C7.55319 19.8432 7.43949 19.8806 7.36368 19.8806C7.24998 19.9181 7.13628 19.9181 7.02258 19.9555C6.94677 19.9555 6.90887 19.9929 6.83307 19.9929C6.83307 19.9929 6.79517 20.0304 6.79517 19.9929V19.9555C6.83307 19.9181 6.87097 19.8806 6.90887 19.8432C6.94677 19.8058 7.02258 19.7309 7.06048 19.6935C7.09838 19.656 7.17418 19.6186 7.21208 19.5811C7.21208 19.5811 7.28788 19.5437 7.28788 19.5063C7.28788 19.5063 7.28788 19.656 7.70479 19.7309C7.70479 19.7683 7.74269 19.7683 7.78059 19.8058C7.78059 19.7683 7.78059 19.7683 7.78059 19.8058C7.8185 19.7683 7.8185 19.7683 7.78059 19.8058ZM7.78059 19.3565C7.59109 19.3565 7.43949 19.1694 7.43949 19.1694L8.0838 18.795L7.78059 19.3565ZM10.4337 19.394L10.2063 19.5811L9.22083 19.3191L10.4337 19.394ZM11.3054 18.7202L10.9643 19.0196L9.22083 18.7576L11.3054 18.7202ZM12.0255 17.8592L11.6086 18.1961L9.37243 18.1212L12.0255 17.8592ZM14.906 20.0304C13.4278 20.2175 12.9351 19.8432 12.9351 19.8432C15.8535 19.8806 18.1276 19.1694 18.1655 19.1694L14.906 20.0304ZM18.1655 19.1694C16.7631 19.6935 15.7019 19.9555 14.906 20.0304L18.1655 19.1694ZM19.7952 17.1853C15.3608 19.7309 13.6552 19.0945 13.6552 19.0945C17.2179 18.4581 19.7573 17.1853 19.7952 17.1853C19.7952 17.1479 19.7952 17.1479 19.7952 17.1853Z" fill="#FFD100" />
  <path d="M11.9129 26.8051C11.7992 27.741 12.9363 26.9174 12.9363 26.9174C12.8605 26.9549 12.5194 26.9549 12.4436 26.88C12.3299 26.8051 12.3678 26.7677 12.3678 26.6554C12.3678 26.3934 12.5194 26.2062 12.7468 26.0939C13.1637 25.8318 13.8459 25.5698 14.3765 25.6072C14.5281 25.158 14.3765 25.0083 14.2628 24.7462C13.5048 24.7088 13.05 24.4093 12.4057 23.7729C12.6331 24.1099 12.5952 24.5216 12.4815 24.8585C12.3678 25.158 12.1783 25.5698 11.9508 25.7944C11.7234 26.0564 11.4581 26.2436 11.1549 26.3934C11.0791 26.4308 10.7759 26.5057 10.738 26.5805C10.359 27.2169 10.2832 27.6661 10.2832 27.6661C10.4348 28.1902 11.3444 28.0405 11.3444 28.0405C10.5864 27.741 11.1549 27.1046 11.1549 27.1046C11.0791 28.2276 12.2541 27.5164 12.2541 27.5164C11.2686 27.6661 11.9129 26.8051 11.9129 26.8051Z" fill="#FFD100" />
  <path d="M10.6994 17.0345C10.6994 17.0345 12.5566 16.6976 13.3525 16.6976C13.3525 16.6976 12.9356 16.2484 11.4195 15.9489C11.4195 15.9489 11.9881 15.6869 12.8598 15.6869C12.8598 15.6869 12.4808 15.3499 11.0784 15.013C11.0784 15.013 11.6469 14.7884 12.2913 14.7884C12.2913 14.7884 11.6469 14.4141 10.6236 14.2269C10.6236 14.2269 11.1542 14.0397 11.7986 14.0397C11.7986 14.0397 11.0405 13.6654 10.1688 13.5531C10.1688 13.5531 10.7373 13.3659 11.2679 13.3285C11.2679 13.3285 10.3204 12.8793 9.6382 12.9167C9.6382 12.9167 10.3583 12.7295 10.5478 12.6921C10.5478 12.6921 9.5624 12.3178 9.06969 12.3178C9.06969 12.3178 9.6761 12.168 9.8277 12.168C9.8277 12.168 9.18339 11.9434 8.72858 11.8685C8.72858 11.8685 11.1542 10.8204 13.6936 17.1468C13.6936 17.1468 15.8161 13.6654 12.3292 10.2963L11.9502 10.8204C11.9502 10.8204 12.3671 8.53689 10.7752 6.96465C10.7752 6.96465 11.23 8.91123 11.0026 9.32301C11.0026 9.32301 10.7373 6.478 9.5245 5.72931C9.5245 5.72931 10.0172 7.30156 9.8656 7.90051C9.8656 7.90051 9.41079 5.50471 8.27377 5.09293C8.27377 5.09293 8.95598 6.62774 8.76648 7.30156C8.76648 7.30156 8.16006 4.86832 6.94723 4.79346C6.94723 4.79346 7.78105 6.55287 7.66735 6.96465C7.66735 6.96465 6.79563 4.79346 5.39329 4.68115C5.39329 4.68115 6.60612 6.70261 6.53032 7.00208C6.53032 7.00208 4.97638 4.53142 3.83936 5.13036C3.83936 5.13036 6.34082 7.33899 7.47785 13.029C7.51575 13.1039 9.8656 14.0772 10.6994 17.0345Z" fill="#FFD100" />
  <path d="M20.4004 19.9171C20.4004 20.2915 20.7036 20.5535 21.0826 20.5535C21.4237 20.5535 21.7269 20.2541 21.7269 19.9171C21.7269 19.5428 21.4237 19.2808 21.0826 19.2808C20.7036 19.2808 20.4004 19.5428 20.4004 19.9171ZM21.6132 19.9171C21.6132 20.2541 21.3858 20.4787 21.0826 20.4787C20.7794 20.4787 20.552 20.2541 20.552 19.9171C20.552 19.6177 20.7794 19.3556 21.0826 19.3556C21.3858 19.3556 21.6132 19.6177 21.6132 19.9171Z" fill="#FFD100" />
  <path d="M20.8157 20.291H20.9294V19.9541H21.0431L21.2705 20.291H21.3842L21.1568 19.9541C21.2705 19.9541 21.3463 19.8792 21.3463 19.7295C21.3463 19.5798 21.2705 19.5049 21.081 19.5049H20.7778V20.291H20.8157ZM20.9294 19.6172H21.081C21.1568 19.6172 21.2326 19.6172 21.2326 19.7295C21.2326 19.8418 21.1189 19.8418 21.0431 19.8418H20.9294V19.6172V19.6172Z" fill="#FFD100" />
</svg>