<svg
        class="social-network-icon"
        width="16"
        height="16"
        viewBox="0 0 16 16"
        fill="none"
        xmlns="http://www.w3.org/2000/svg"
      >
        <path
          d="M15.5546 11.4361C15.5358 11.3958 15.5184 11.3623 15.5022 11.3355C15.2339 10.8523 14.7213 10.2593 13.9646 9.55624L13.9486 9.54014L13.9406 9.53224L13.9325 9.52415H13.9244C13.5809 9.19676 13.3634 8.97663 13.2724 8.86393C13.1057 8.64925 13.0684 8.43194 13.1595 8.21175C13.2238 8.04539 13.4655 7.69406 13.884 7.15729C14.1041 6.87282 14.2785 6.64482 14.4072 6.47305C15.3358 5.23861 15.7383 4.44979 15.6148 4.10627L15.5669 4.02599C15.5346 3.97767 15.4514 3.93345 15.3174 3.89313C15.1831 3.8529 15.0114 3.84624 14.8021 3.87306L12.4836 3.88907C12.4461 3.87576 12.3924 3.877 12.3226 3.89313C12.2528 3.90926 12.2179 3.91735 12.2179 3.91735L12.1775 3.93751L12.1455 3.96173C12.1187 3.97775 12.0891 4.00592 12.0569 4.04618C12.0248 4.08631 11.998 4.13339 11.9766 4.18705C11.7242 4.83644 11.4372 5.44021 11.1151 5.99833C10.9165 6.33113 10.7342 6.61956 10.5676 6.86376C10.4013 7.10789 10.2617 7.28775 10.1491 7.40305C10.0363 7.51846 9.93454 7.61091 9.84312 7.68076C9.75185 7.75063 9.68218 7.78015 9.63393 7.76935C9.58558 7.75855 9.54004 7.74783 9.49693 7.73712C9.42184 7.68879 9.36145 7.62307 9.31591 7.53989C9.27017 7.45671 9.23938 7.35201 9.22328 7.22589C9.20727 7.09968 9.19779 6.99113 9.19509 6.89986C9.19258 6.8087 9.19373 6.67975 9.19917 6.5134C9.20476 6.34695 9.20727 6.23434 9.20727 6.17529C9.20727 5.97132 9.21124 5.74995 9.21922 5.51113C9.22734 5.2723 9.23391 5.08308 9.23941 4.94367C9.24488 4.80413 9.24742 4.65649 9.24742 4.50085C9.24742 4.34521 9.23795 4.22314 9.21922 4.13455C9.20073 4.04607 9.17233 3.96018 9.13492 3.87692C9.09727 3.79374 9.04218 3.7294 8.96988 3.68372C8.89744 3.6381 8.80739 3.60189 8.70021 3.57499C8.41574 3.51062 8.0535 3.4758 7.61332 3.47038C6.61514 3.45967 5.97376 3.52413 5.68932 3.66367C5.57661 3.72263 5.47463 3.80319 5.38344 3.90509C5.28681 4.0232 5.27333 4.08766 5.34309 4.09826C5.66515 4.14651 5.89315 4.26191 6.02733 4.44437L6.07569 4.54106C6.1133 4.61082 6.15086 4.73432 6.18845 4.91139C6.22598 5.08846 6.2502 5.28434 6.26086 5.49892C6.28764 5.89076 6.28764 6.22619 6.26086 6.50522C6.23398 6.78436 6.20861 7.00167 6.18439 7.15732C6.16017 7.31296 6.12396 7.43908 6.07569 7.53566C6.02733 7.63226 5.99516 7.6913 5.97903 7.71273C5.96293 7.73416 5.94951 7.74767 5.93885 7.75297C5.8691 7.7797 5.79655 7.79332 5.72146 7.79332C5.64626 7.79332 5.55507 7.7557 5.44776 7.68053C5.34047 7.60536 5.22912 7.5021 5.11371 7.37059C4.99831 7.23906 4.86815 7.05525 4.72319 6.81913C4.57835 6.58301 4.42806 6.30395 4.27242 5.98195L4.14365 5.74843C4.06314 5.5982 3.95318 5.37945 3.81363 5.09238C3.67401 4.8052 3.55059 4.52741 3.4433 4.25907C3.40042 4.14636 3.33599 4.06056 3.25013 4.00152L3.20984 3.9773C3.18305 3.95587 3.14005 3.93311 3.08106 3.90887C3.02199 3.88465 2.96036 3.86728 2.8959 3.85659L0.690122 3.87261C0.46472 3.87261 0.311783 3.92367 0.231254 4.02566L0.199025 4.0739C0.182925 4.10077 0.174805 4.14369 0.174805 4.20276C0.174805 4.2618 0.190905 4.33427 0.223133 4.42007C0.545136 5.17686 0.895307 5.90672 1.27365 6.60977C1.65199 7.31282 1.98076 7.87915 2.25976 8.30824C2.53882 8.73764 2.82326 9.14291 3.1131 9.52384C3.40293 9.90492 3.59477 10.1491 3.68864 10.2564C3.78262 10.3639 3.85644 10.4443 3.91009 10.4979L4.11139 10.6911C4.24019 10.8199 4.42933 10.9742 4.6789 11.154C4.92852 11.3338 5.20487 11.5109 5.5081 11.6855C5.81138 11.8597 6.1642 12.002 6.56676 12.112C6.96926 12.2221 7.36102 12.2663 7.7421 12.2449H8.6679C8.85566 12.2287 8.99791 12.1697 9.09459 12.0678L9.12663 12.0274C9.14817 11.9954 9.16833 11.9456 9.18694 11.8787C9.20577 11.8116 9.21513 11.7377 9.21513 11.6573C9.20964 11.4266 9.2272 11.2186 9.26735 11.0335C9.30748 10.8484 9.35321 10.7089 9.40436 10.6149C9.45548 10.521 9.51317 10.4417 9.57737 10.3775C9.64172 10.3131 9.68756 10.2741 9.71446 10.2607C9.74119 10.2472 9.76254 10.2381 9.77864 10.2326C9.90744 10.1896 10.059 10.2312 10.2336 10.3574C10.4081 10.4836 10.5717 10.6393 10.7247 10.8244C10.8777 11.0096 11.0615 11.2175 11.2761 11.4482C11.4909 11.679 11.6787 11.8506 11.8396 11.9635L12.0006 12.0601C12.1081 12.1245 12.2476 12.1836 12.4194 12.2372C12.5908 12.2908 12.7411 12.3043 12.8701 12.2774L14.9309 12.2453C15.1347 12.2453 15.2933 12.2116 15.4058 12.1446C15.5185 12.0775 15.5855 12.0036 15.6071 11.9232C15.6286 11.8427 15.6298 11.7514 15.6112 11.6494C15.5921 11.5476 15.5733 11.4764 15.5546 11.4361Z"
          fill="white"
        />
      </svg>