<svg width="24" height="24" viewBox="0 0 24 24" fill="none" xmlns="http://www.w3.org/2000/svg">
  <path
    d="M17.7 9.39402C17.7 10.0763 17.3631 11.0829 16.7504 12.3021C16.1527 13.4912 15.3491 14.7753 14.5362 15.9773C13.7607 17.1241 12.9883 18.1796 12.3938 18.992C12.3663 19.0295 12.3392 19.0665 12.3125 19.103C12.1776 19.2873 12.0516 19.4598 11.9376 19.6173C11.841 19.4906 11.7361 19.3521 11.6243 19.203C11.0212 18.3993 10.2186 17.2931 9.41752 16.0803C8.61455 14.8647 7.82301 13.5569 7.23512 12.3475C6.63271 11.1082 6.3 10.0822 6.3 9.39402C6.3 6.31687 8.83953 3.8 12 3.8C15.1605 3.8 17.7 6.31687 17.7 9.39402Z"
    stroke="white"
    stroke-width="1.6"
  />
  <circle cx="12.0001" cy="9.00885" r="1.68757" fill="white" />
</svg>