<svg width="67" height="16" viewBox="0 0 67 16" fill="none" xmlns="http://www.w3.org/2000/svg">
  <g clip-path="url(#clip0_286_1725)">
    <path
      d="M33.4729 15.7719H0.384394C-0.00488281 15.7719 -0.00488281 15.7719 -0.00488281 15.3826C-0.00488281 13.8862 -0.00488281 12.3898 -0.00488281 10.8935C-0.00488281 10.582 -0.00488281 10.582 0.306539 10.582H66.5809C67.0263 10.582 66.9928 10.5501 66.9928 10.9947C66.9928 12.4703 66.9928 13.9459 66.9928 15.4215C66.9928 15.7727 66.9928 15.7734 66.6416 15.7734L33.4729 15.7719ZM58.7907 11.0313C58.5914 11.0313 58.3921 11.025 58.1928 11.0313C58.1328 11.0313 58.0371 11.0632 58.0207 11.1045C57.9584 11.2614 57.9117 11.4241 57.8814 11.5903C57.8121 11.9702 57.763 12.354 57.6937 12.734C57.6244 13.1139 57.538 13.5047 57.4602 13.8901C57.3753 14.3137 57.2959 14.7387 57.2025 15.1607C57.1721 15.2954 57.2211 15.3445 57.3387 15.3476C57.538 15.3538 57.7373 15.3429 57.9359 15.3538C58.1344 15.3647 58.2154 15.2448 58.2387 15.0696C58.2465 15.0089 58.2387 14.9466 58.2434 14.8851C58.2621 14.5262 58.3454 14.446 58.6957 14.446H58.9636C59.289 14.446 59.2999 14.4577 59.3139 14.7753C59.3365 15.3048 59.3848 15.3515 59.9002 15.3515H60.0232C60.3455 15.3515 60.4062 15.2464 60.3268 14.9365C60.2318 14.5698 60.1711 14.1953 60.101 13.8216C60.0309 13.4479 59.9811 13.0711 59.9118 12.6966C59.8285 12.2435 59.7273 11.7935 59.6463 11.3396C59.6059 11.1107 59.5327 11.0282 59.3022 11.0282L58.7907 11.0313ZM62.3285 11.0313V11.0562C62.0272 11.0562 61.7103 10.9955 61.4277 11.0679C60.7091 11.2524 60.6343 11.9554 60.7612 12.5775C60.7887 12.7314 60.8603 12.874 60.9672 12.988C61.0742 13.1021 61.212 13.1826 61.3638 13.2198C61.5546 13.2653 61.7494 13.2914 61.9454 13.2976C62.2467 13.3171 62.5597 13.5803 62.5768 13.8426C62.6049 14.2662 62.4538 14.4888 62.0591 14.5433C61.8003 14.5677 61.5404 14.5773 61.2805 14.5721C60.6452 14.5846 60.7355 14.4725 60.7231 15.1522C60.7231 15.3079 60.7924 15.3561 60.9364 15.3538C61.2112 15.3484 61.4876 15.3367 61.7609 15.3538C62.1074 15.3795 62.4234 15.2759 62.7419 15.1716C63.0603 15.0673 63.2386 14.8509 63.3647 14.5589C63.5041 14.2335 63.4722 13.8917 63.4309 13.5662C63.4126 13.4024 63.356 13.2452 63.2657 13.1074C63.1753 12.9696 63.0537 12.855 62.9108 12.7729C62.615 12.5931 62.3152 12.5993 62.0015 12.5931C61.7578 12.5884 61.5281 12.3844 61.518 12.1695C61.5079 11.9546 61.7516 11.7304 62.003 11.7265C62.2709 11.7218 62.5394 11.7265 62.8073 11.7265C63.3289 11.7203 63.2814 11.8153 63.2822 11.2135C63.2822 11.0827 63.2238 11.0274 63.0946 11.0289C62.8376 11.0352 62.583 11.0328 62.3285 11.0328V11.0313ZM54.7835 13.1801C54.7835 13.8112 54.7835 14.4424 54.7835 15.0735C54.7835 15.3375 54.8045 15.3577 55.063 15.3593C55.4819 15.3593 55.9015 15.3593 56.3204 15.3593C56.884 15.3546 56.8428 15.4519 56.8381 14.7995C56.8381 14.6438 56.7602 14.5768 56.6045 14.5799C56.4052 14.5838 56.2059 14.5737 56.0066 14.5799C55.8314 14.5877 55.7559 14.5239 55.7629 14.3425C55.7723 14.0816 55.7746 13.8201 55.7629 13.5639C55.7528 13.3654 55.8283 13.3 56.0245 13.3031C56.5057 13.3093 56.4691 13.3669 56.4698 12.8437C56.4698 12.8235 56.4698 12.8025 56.4698 12.7822C56.4737 12.6623 56.4161 12.6055 56.2954 12.6071C56.1748 12.6086 56.0619 12.6071 55.9451 12.6071C55.8283 12.6071 55.7668 12.5533 55.7676 12.4334C55.7676 12.2777 55.7738 12.1174 55.7676 11.9601C55.7575 11.7857 55.8392 11.7265 56.0012 11.7374C56.1312 11.7444 56.262 11.7374 56.3904 11.7374C56.8435 11.7374 56.8373 11.7374 56.8397 11.2897C56.8397 11.1076 56.7859 11.0313 56.5921 11.0352C56.0704 11.0445 55.5473 11.0445 55.0256 11.0352C54.8326 11.0313 54.7749 11.106 54.7773 11.289C54.7874 11.9134 54.7835 12.5448 54.7835 13.1801ZM64.9826 11.0352C64.6945 11.0352 64.4056 11.0352 64.1176 11.0352C63.6092 11.0414 63.6504 10.9472 63.6504 11.5576C63.6504 11.6767 63.7034 11.7351 63.8241 11.7335C63.9447 11.732 64.0849 11.7335 64.2133 11.7335C64.5131 11.7335 64.5154 11.7335 64.5154 12.0278C64.5154 12.9398 64.5154 13.8515 64.5154 14.7629C64.5154 15.3624 64.5154 15.3624 65.1141 15.3585C65.4037 15.3585 65.4193 15.3429 65.4193 15.058C65.4193 14.0365 65.4193 13.015 65.4193 11.9936C65.4193 11.7981 65.4847 11.7117 65.6817 11.7327C65.7297 11.7359 65.7778 11.7359 65.8257 11.7327C66.3349 11.7265 66.2859 11.802 66.2929 11.25C66.2929 11.0943 66.2337 11.0289 66.0749 11.032C65.7089 11.0359 65.3454 11.0313 64.981 11.0313L64.9826 11.0352Z"
      fill="white"
    />
    <path
      d="M28.6181 5.20646C28.6283 5.17456 28.6322 5.14099 28.6297 5.10759C28.474 4.54859 28.6235 3.97168 28.5394 3.41423C28.3915 2.43014 28.5099 1.44527 28.4694 0.461958C28.4569 0.16455 28.4694 0.161437 28.7637 0.160658C29.3546 0.160658 29.9455 0.165329 30.5364 0.160658C30.7155 0.160658 30.7778 0.221386 30.777 0.399675C30.7739 3.35818 30.7739 6.31668 30.777 9.27519C30.777 9.4706 30.6991 9.52199 30.5193 9.51965C29.9907 9.51187 29.4605 9.50797 28.9318 9.51965C28.8516 9.52963 28.7703 9.51192 28.7015 9.46944C28.6327 9.42697 28.5805 9.36229 28.5535 9.28609C28.2514 8.65001 27.9438 8.01627 27.6239 7.38953C27.2821 6.72075 26.9232 6.06132 26.5736 5.39643C26.4864 5.22982 26.4117 5.05543 26.3315 4.88492L26.2536 4.89349C26.2536 5.02584 26.2443 5.15897 26.2536 5.29055C26.2707 5.49297 26.3104 5.69384 26.3221 5.89626C26.3338 6.09869 26.2949 6.31279 26.3299 6.51288C26.4802 7.36929 26.4373 8.23582 26.4428 9.09924C26.4428 9.5142 26.4428 9.5142 26.0333 9.5142C25.4828 9.5142 24.9332 9.50875 24.3835 9.5142C24.1959 9.5142 24.132 9.45114 24.1328 9.26351C24.137 6.31331 24.137 3.36285 24.1328 0.412132C24.1328 0.229172 24.1873 0.15443 24.3796 0.158322C24.8678 0.168444 25.3559 0.165329 25.8433 0.158322C25.9006 0.151993 25.9583 0.16474 26.0076 0.194584C26.0568 0.224428 26.0949 0.2697 26.1158 0.323375C26.5199 1.14397 26.9333 1.95834 27.3405 2.77893C27.5982 3.29823 27.8473 3.8222 28.1081 4.34071C28.2568 4.63734 28.4195 4.92619 28.5752 5.21814L28.6181 5.20646Z"
      fill="white"
    />
    <path
      d="M14.677 9.51067H14.3967C13.6408 9.51067 12.8848 9.49666 12.1288 9.51845C12.0252 9.52835 11.9209 9.50628 11.8302 9.4552C11.7395 9.40412 11.6665 9.32649 11.6212 9.23273C11.3705 8.81283 11.1185 8.39371 10.8652 7.97537C10.8504 7.95201 10.8255 7.9341 10.8162 7.90919C10.6846 7.53937 10.416 7.44205 10.0446 7.48487C9.8788 7.50512 9.81574 7.55339 9.81808 7.71844C9.8243 8.22606 9.81808 8.73056 9.81808 9.24207C9.81808 9.49666 9.80562 9.50833 9.54869 9.50911C8.95777 9.50911 8.36685 9.50366 7.77593 9.50911C7.58596 9.50911 7.50732 9.45929 7.50732 9.25531C7.512 6.30459 7.512 3.35439 7.50732 0.404708C7.50732 0.217855 7.56805 0.151677 7.75724 0.153234C8.65725 0.160241 9.55804 0.137664 10.4573 0.164135C10.9469 0.174746 11.4342 0.235003 11.9116 0.343981C12.3114 0.432999 12.6927 0.591079 13.0382 0.811113C13.3825 1.05066 13.6657 1.36774 13.865 1.73681C14.1663 2.27401 14.2348 2.85014 14.2333 3.44963C14.2333 3.70344 14.2247 3.95725 14.2333 4.21106C14.2524 4.6541 14.1902 5.0969 14.0495 5.51747C13.9453 5.79752 13.7947 6.05807 13.6042 6.28824C13.4306 6.50857 13.1931 6.67751 12.9907 6.87682C12.9728 6.89686 12.9602 6.92096 12.9538 6.94701C12.9474 6.97307 12.9475 7.0003 12.9541 7.02631C13.0662 7.21939 13.1877 7.40624 13.3146 7.59076C13.5009 7.86533 13.6906 8.13756 13.8837 8.40746C14.0659 8.66127 14.2574 8.90885 14.4427 9.1611C14.5174 9.26309 14.5844 9.36508 14.677 9.51067ZM9.82041 3.81944V5.55017C9.8208 5.55691 9.8208 5.56367 9.82041 5.57041C9.80017 5.75026 9.88347 5.82889 10.0594 5.80398C10.2478 5.77984 10.4355 5.75104 10.6223 5.72612C11.3176 5.6179 11.8322 5.2006 11.9054 4.54428C11.9653 3.99929 12.0175 3.43328 11.8275 2.89764C11.7606 2.68251 11.6403 2.4878 11.4779 2.33163C11.1755 2.0577 10.7768 1.9149 10.3693 1.93457C10.2603 1.94079 10.1357 1.95636 10.0439 1.91432C9.81729 1.81077 9.8173 1.94079 9.8173 2.09651C9.81989 2.66952 9.82093 3.24383 9.82041 3.81944Z"
      fill="white"
    />
    <path
      d="M5.2851 4.14843C5.58406 4.42482 5.90794 4.67941 6.17187 4.9846C6.33225 5.16834 6.40544 5.42915 6.51443 5.65571C6.75423 6.14464 6.67637 6.67562 6.61253 7.16611C6.53468 7.76092 6.30111 8.34717 5.81997 8.75825C5.42287 9.10749 4.93859 9.34263 4.41857 9.43871C3.64001 9.57807 2.86146 9.48386 2.08291 9.50877C1.49899 9.52824 0.915076 9.50878 0.329603 9.51578C0.141972 9.51578 0.0773534 9.45428 0.0781319 9.26587C0.0817652 6.31411 0.0817652 3.36261 0.0781319 0.411375C0.0781319 0.225301 0.138082 0.159123 0.328049 0.159902C1.31759 0.166909 2.30869 0.131876 3.29745 0.173918C4.04409 0.20506 4.77671 0.364662 5.32169 0.948577C5.62564 1.25843 5.80137 1.67164 5.81374 2.10551C5.81919 2.32117 5.80673 2.53761 5.81374 2.75249C5.82685 2.97815 5.79067 3.20397 5.70772 3.41424C5.62477 3.62452 5.49702 3.81421 5.33337 3.97014C5.31001 3.99519 5.2913 4.02419 5.27809 4.05579C5.25863 4.09783 5.2454 4.14221 5.22905 4.1858L5.2851 4.14843ZM2.30713 6.5456C2.30713 6.9014 2.30713 7.25798 2.30713 7.61378C2.30713 7.75859 2.35774 7.838 2.50955 7.82476C2.79373 7.80063 3.08569 7.80919 3.35896 7.74146C4.05109 7.5694 4.43414 7.14898 4.33915 6.38366C4.30178 6.07925 4.2395 5.78651 3.9709 5.62301C3.72216 5.47167 3.45285 5.35708 3.17132 5.28279C2.96579 5.22985 2.73456 5.27656 2.51578 5.27111C2.36708 5.26722 2.3048 5.32716 2.30635 5.47743C2.31024 5.83089 2.30713 6.18747 2.30713 6.54327V6.5456ZM2.30713 2.73069C2.30713 2.95024 2.31336 3.16979 2.30713 3.38856C2.3009 3.55362 2.36163 3.63926 2.53213 3.61746C2.82643 3.58087 3.12617 3.5653 3.38854 3.40336C3.74045 3.18848 3.98258 2.84903 3.74979 2.37956C3.70542 2.2908 3.66727 2.16857 3.59408 2.13042C3.26475 1.96459 2.92063 1.8408 2.5407 1.84625C2.37487 1.84625 2.30168 1.90231 2.30713 2.07359C2.31336 2.2908 2.30635 2.51347 2.30635 2.72913L2.30713 2.73069Z"
      fill="white"
    />
    <path
      d="M31.6398 4.83235C31.6398 3.37127 31.6398 1.90992 31.6398 0.448318C31.6398 0.166482 31.6445 0.16181 31.9295 0.161031C32.8232 0.161031 33.7201 0.141568 34.6092 0.168817C35.1192 0.180734 35.6269 0.239897 36.1259 0.345548C36.7749 0.482376 37.3526 0.849326 37.7523 1.37869C37.9259 1.60759 38.0403 1.88553 38.1587 2.15179C38.3712 2.62983 38.3665 3.14134 38.3642 3.65285C38.3595 4.64005 38.3798 5.62881 38.3572 6.61602C38.3424 7.24587 38.1026 7.80409 37.7484 8.33351C37.4953 8.71111 37.1255 8.91665 36.776 9.14788C36.5284 9.31371 36.1928 9.37677 35.8868 9.41959C34.5563 9.60645 33.2164 9.47098 31.8812 9.51302C31.6858 9.51925 31.6359 9.43516 31.6367 9.25765C31.6419 7.78203 31.643 6.30693 31.6398 4.83235ZM33.949 4.82457C33.949 5.73625 33.9529 6.64872 33.949 7.56119C33.949 7.75193 34.0043 7.85081 34.206 7.82356C34.3874 7.79864 34.5672 7.76283 34.7509 7.7457C35.087 7.71273 35.4015 7.5651 35.6416 7.32762C35.7748 7.19425 35.88 7.03559 35.951 6.86098C36.022 6.68636 36.0574 6.49931 36.055 6.31083C36.069 5.47388 36.0651 4.63771 36.055 3.80077C36.055 3.55786 35.9974 3.31651 35.9842 3.0736C35.9577 2.58778 35.5949 2.35422 35.2484 2.13934C34.9851 1.97256 34.6732 1.89959 34.3632 1.93224C34.3086 1.9377 34.2534 1.93455 34.1997 1.9229C33.9537 1.86996 33.9529 1.8684 33.9529 2.13155C33.9498 3.02844 33.9485 3.92612 33.949 4.82457Z"
      fill="white"
    />
    <path
      d="M19.3697 0.159767H20.9572C21.299 0.159767 21.3465 0.207259 21.4064 0.549044C21.4796 0.953114 21.5692 1.35407 21.6462 1.75736C21.7109 2.09759 21.7622 2.43937 21.8292 2.77882C21.8993 3.13774 21.9849 3.49354 22.0573 3.85167C22.1616 4.35384 22.2582 4.85756 22.3687 5.35817C22.4061 5.52867 22.4777 5.69139 22.5307 5.858C22.545 5.91048 22.5562 5.96378 22.5642 6.01761C22.642 6.42245 22.7199 6.8273 22.7977 7.23215C22.8546 7.51866 22.9122 7.80439 22.9752 8.08856C23.0531 8.44981 23.1309 8.81339 23.2306 9.17075C23.303 9.43624 23.2625 9.51253 22.9908 9.51331H21.0141C20.775 9.51331 20.7026 9.42378 20.6653 9.18165C20.5929 8.69272 20.5096 8.20612 20.413 7.7203C20.4002 7.68669 20.3792 7.65675 20.3521 7.63313C20.3249 7.60951 20.2924 7.59292 20.2573 7.58484C19.6526 7.57445 19.0479 7.57445 18.4433 7.58484C18.4076 7.59338 18.3746 7.61076 18.3474 7.63539C18.3202 7.66001 18.2996 7.69109 18.2876 7.72575C18.1972 8.17031 18.1209 8.61798 18.0408 9.06487C18.0353 9.09203 18.033 9.11971 18.0338 9.14739C18.0556 9.5717 17.9793 9.51098 17.6328 9.51175C16.9936 9.51175 16.3544 9.51175 15.7152 9.51175C15.5595 9.51175 15.4637 9.51176 15.5291 9.28364C15.628 8.93251 15.6522 8.56192 15.7238 8.20223C15.7627 8.00525 15.8336 7.81295 15.8904 7.6222C15.9021 7.58328 15.9138 7.54435 15.9215 7.50464C15.9994 7.09512 16.0811 6.68639 16.1551 6.27687C16.2182 5.93664 16.2657 5.59329 16.3404 5.2554C16.4151 4.91751 16.5187 4.59363 16.6012 4.26119C16.644 4.08991 16.6689 3.91473 16.7032 3.74189C16.7811 3.35262 16.8644 2.95867 16.9368 2.56628C16.9765 2.35996 16.9983 2.14975 17.0403 1.94343C17.0691 1.7994 17.1283 1.66082 17.1594 1.51679C17.2474 1.10649 17.3206 0.692298 17.4195 0.283557C17.4335 0.22828 17.5604 0.165996 17.6351 0.165218C18.2152 0.155097 18.7921 0.159767 19.3697 0.159767ZM18.648 5.88136C18.8505 5.89615 19.0537 5.9234 19.2561 5.92262C19.5208 5.92262 19.7847 5.89615 20.0494 5.88136C20.0191 5.59797 19.9941 5.31379 19.9576 5.03196C19.9319 4.83031 19.8937 4.631 19.8556 4.43169C19.8135 4.21292 19.7614 3.9957 19.7193 3.77693C19.6672 3.50054 19.622 3.2226 19.5737 2.94466C19.5255 2.66671 19.478 2.38488 19.4289 2.10537C19.4219 2.06489 19.4087 2.02752 19.3986 1.98626H19.3417C19.3168 2.10927 19.2903 2.2315 19.2678 2.35451C19.221 2.60676 19.1798 2.86057 19.1292 3.11204C19.084 3.33549 19.0217 3.55504 18.982 3.77926C18.9423 4.00349 18.9229 4.23627 18.8886 4.46439C18.8575 4.67149 18.8185 4.8778 18.7835 5.08723C18.7376 5.34805 18.6932 5.61509 18.648 5.88136Z"
      fill="white"
    />
    <path
      d="M53.4621 4.90281C53.4621 5.19788 53.4722 5.49373 53.4621 5.78802C53.4411 6.28474 53.4403 6.78613 53.3679 7.27661C53.2875 7.79945 53.0546 8.28693 52.6984 8.67801C52.2958 9.13502 51.7898 9.3974 51.2292 9.57257C50.6524 9.74636 50.0438 9.78813 49.4487 9.6948C48.9372 9.61695 48.4116 9.47603 47.9834 9.16305C47.5818 8.87561 47.2548 8.49628 47.0297 8.05673C46.8234 7.64954 46.7743 7.22912 46.7261 6.78223C46.6155 5.76311 46.6614 4.74476 46.6669 3.72641C46.6706 3.18969 46.7301 2.6548 46.8444 2.13038C46.9114 1.82518 47.1239 1.55035 47.2827 1.26774C47.5941 0.70796 48.1469 0.450259 48.7036 0.219028C48.9068 0.134944 49.138 0.113923 49.3591 0.0827813C49.6347 0.0446322 49.915 -0.00986657 50.1906 0.00492594C50.6772 0.0321753 51.1623 0.0944583 51.6216 0.290654C52 0.452593 52.3581 0.655797 52.6337 0.953983C53.0954 1.45771 53.3765 2.04396 53.3889 2.75633C53.4014 3.46871 53.4668 4.18732 53.5049 4.90281H53.4621ZM51.1506 3.45625C51.1165 3.39991 51.0903 3.33913 51.0727 3.27563C51.0377 3.02727 51.0338 2.77346 50.9801 2.52977C50.9123 2.21835 50.8119 1.90693 50.46 1.80105C50.2651 1.74074 50.0593 1.72452 49.8574 1.75356C49.5117 1.8065 49.3397 2.03539 49.226 2.29854C48.9854 2.85832 49.0002 3.47416 48.9776 4.06353C48.9457 4.9067 49.0173 5.75377 49.0462 6.59928C49.0571 6.93561 49.11 7.26494 49.2891 7.5569C49.4681 7.84885 49.7173 8.06218 50.1073 8.03026C50.4499 8.00145 50.6718 7.80214 50.8322 7.53509C51.0221 7.219 51.0743 6.86087 51.0727 6.49261C51.0861 6.41112 51.1124 6.33228 51.1506 6.25905C51.1702 6.18084 51.1835 6.10117 51.1903 6.02081C51.1934 5.2298 51.1934 4.43905 51.1903 3.64856C51.1836 3.58328 51.1703 3.51884 51.1506 3.45625Z"
      fill="white"
    />
    <path
      d="M61.0958 4.9364C61.0958 5.52655 61.0771 6.11747 61.102 6.70683C61.1215 7.14983 60.9899 7.54534 60.8529 7.95252C60.7244 8.33635 60.4722 8.63219 60.2051 8.90313C59.8626 9.25115 59.4196 9.45357 58.9462 9.59293C58.5258 9.71672 58.1023 9.8265 57.667 9.78913C57.1828 9.75176 56.6931 9.70271 56.2454 9.4777C56.1006 9.40686 55.9535 9.34146 55.8071 9.27294C55.1788 8.97476 54.8448 8.42121 54.5723 7.82484C54.5077 7.65294 54.4689 7.47244 54.4571 7.28919C54.2905 5.96565 54.3753 4.6351 54.3862 3.30845C54.3909 2.77592 54.4283 2.21847 54.6867 1.71864C54.9102 1.28576 55.2481 0.952543 55.621 0.64735C55.8843 0.430176 56.1977 0.282187 56.5327 0.21681C56.7831 0.157956 57.0365 0.112476 57.2918 0.0805634C57.5321 0.0653765 57.773 0.0638171 58.0135 0.0758923C58.6365 0.0730121 59.2473 0.249207 59.773 0.583508C60.3663 0.965 60.7704 1.47184 60.9557 2.14451C61.0374 2.44114 61.1199 2.73621 61.1059 3.05931C61.0771 3.68682 61.0958 4.312 61.0958 4.9364ZM56.6845 6.42188C56.7382 6.68503 56.7997 6.94663 56.8402 7.21056C56.9274 7.7462 57.182 8.01947 57.7231 8.05684C57.9318 8.07164 58.1529 8.03582 58.3249 7.82795C58.6412 7.44753 58.8059 6.96374 58.7874 6.46937C58.7788 5.63243 58.7944 4.79548 58.7812 3.95932C58.7813 3.53707 58.7516 3.11535 58.6924 2.69728C58.6262 2.28153 58.4456 1.92651 57.9785 1.79182C57.583 1.67815 57.0193 1.93041 56.9298 2.29477C56.8519 2.62176 56.6713 2.92618 56.7063 3.27964C56.7063 3.29755 56.6907 3.31701 56.6814 3.33492C56.662 3.41367 56.649 3.49386 56.6425 3.57471C56.6394 4.44358 56.6394 5.31296 56.6425 6.18286C56.6496 6.26359 56.6637 6.34356 56.6845 6.42188Z"
      fill="white"
    />
    <path
      d="M39.152 4.81324V0.453337C39.152 0.170722 39.1575 0.166049 39.4417 0.165271C40.3082 0.165271 41.1747 0.145029 42.0397 0.173057C42.5499 0.180513 43.058 0.241313 43.5555 0.354461C44.0032 0.465016 44.4851 0.564671 44.8425 0.892442C45.079 1.12694 45.2976 1.37886 45.4965 1.64608C45.5785 1.74605 45.6418 1.85998 45.6833 1.98242C45.7661 2.21817 45.8281 2.4607 45.8686 2.70725C45.8998 2.92213 45.8686 3.14558 45.878 3.36513C45.878 3.45855 45.9153 3.55042 45.927 3.64385C45.944 3.74412 45.9511 3.84583 45.948 3.94749C45.9301 4.19818 45.8756 4.44732 45.8803 4.69646C45.8943 5.44231 45.5619 6.02701 45.0823 6.56499C44.7709 6.90677 44.366 7.05314 43.9604 7.21897C43.6311 7.34647 43.2818 7.41448 42.9288 7.41984C42.5341 7.43463 42.1409 7.47823 41.747 7.49769C41.5912 7.5047 41.5414 7.56309 41.543 7.71024C41.543 8.23109 41.5375 8.75272 41.543 9.27435C41.5469 9.4651 41.4752 9.52505 41.2899 9.52271C40.6671 9.51493 40.0388 9.52271 39.4136 9.52271C39.1606 9.52271 39.1489 9.50948 39.1489 9.251C39.1505 7.77019 39.1515 6.29093 39.152 4.81324ZM41.5562 1.8812C41.5515 1.9793 41.5445 2.05326 41.5445 2.12645C41.5445 2.44254 41.5445 2.75786 41.5445 3.07317C41.5445 3.90389 41.5445 4.7346 41.5445 5.56454C41.5445 5.73972 41.6006 5.82925 41.7781 5.80356C41.9093 5.7711 42.0424 5.74718 42.1767 5.73193C42.6875 5.72726 43.051 5.46022 43.3625 5.09585C43.4432 5.01226 43.5044 4.91173 43.5415 4.80156C43.6025 4.586 43.6365 4.36372 43.6427 4.13979C43.6427 3.81435 43.5921 3.4897 43.5649 3.16504C43.5252 2.63951 43.0744 2.11244 42.5582 2.01823C42.2359 1.95906 41.905 1.92792 41.5562 1.8812Z"
      fill="white"
    />
    <path
      d="M62.0476 4.81377C62.0476 3.36047 62.0476 1.90561 62.0476 0.449199C62.0476 0.166584 62.0523 0.161911 62.3373 0.161133C62.9212 0.161133 63.5051 0.161133 64.0898 0.161133C64.3444 0.161133 64.3553 0.172033 64.3553 0.431291C64.3553 2.79187 64.3553 5.15348 64.3553 7.51613C64.3553 7.86025 64.3553 7.86025 64.6916 7.86103C65.3721 7.86103 66.0525 7.8657 66.733 7.86103C66.9253 7.86103 67.0063 7.91475 67 8.11795C66.9883 8.50178 66.9891 8.88639 67 9.27021C67.0055 9.46174 66.9307 9.51935 66.7462 9.51857C65.267 9.51312 63.7877 9.51857 62.3085 9.51857C62.0546 9.51857 62.043 9.50611 62.043 9.24763C62.0456 7.7689 62.0471 6.29095 62.0476 4.81377Z"
      fill="white"
    />
    <path
      d="M18.6489 5.88184H20.0503C19.7856 5.89663 19.5217 5.92154 19.257 5.9231C19.0546 5.92388 18.8513 5.89663 18.6489 5.88184Z"
      fill="white"
    />
    <path
      d="M51.1519 6.25494C51.1519 5.32068 51.1519 4.38641 51.1519 3.45215C51.1711 3.51401 51.1842 3.57765 51.1908 3.64212C51.1908 4.43313 51.1908 5.22388 51.1908 6.01437C51.1844 6.09549 51.1714 6.17595 51.1519 6.25494Z"
      fill="white"
    />
    <path
      d="M56.6814 3.33398V6.42095C56.6616 6.34254 56.6486 6.26257 56.6425 6.18193C56.6394 5.31255 56.6394 4.44316 56.6425 3.57378C56.649 3.49293 56.662 3.41274 56.6814 3.33398Z"
      fill="white"
    />
    <path
      d="M58.866 11.8714C58.9244 12.2724 58.982 12.6741 59.0428 13.0751C59.0646 13.2152 59.1027 13.3538 59.1206 13.4939C59.1354 13.613 59.0685 13.6714 58.9486 13.6683C58.8045 13.6683 58.6418 13.7041 58.5204 13.6504C58.3226 13.5632 58.5102 13.3989 58.5204 13.2775C58.5375 12.9894 58.6231 12.7053 58.6761 12.4211C58.6955 12.3144 58.6932 12.2039 58.7134 12.0972C58.7341 12.0144 58.7602 11.933 58.7913 11.8535L58.866 11.8714Z"
      fill="white"
    />
  </g>
  <defs>
    <clipPath id="clip0_286_1725">
      <rect width="67" height="16" fill="white" />
    </clipPath>
  </defs>
</svg>